<mxfile host="app.diagrams.net" agent="Mozilla/5.0 (Windows NT 10.0; Win64; x64) AppleWebKit/537.36 (KHTML, like Gecko) Chrome/134.0.0.0 Safari/537.36" version="26.1.1">
  <diagram name="Page-1" id="ADqag6U28WJguTyAMG1K">
    <mxGraphModel dx="2085" dy="655" grid="1" gridSize="10" guides="1" tooltips="1" connect="1" arrows="1" fold="1" page="1" pageScale="1" pageWidth="850" pageHeight="1100" math="0" shadow="0">
      <root>
        <mxCell id="0" />
        <mxCell id="1" parent="0" />
        <mxCell id="g1vbs8MuK60aYzZgxMlk-1" value="Srilanka ISP&lt;div&gt;&amp;nbsp;斯里兰卡运营商&lt;/div&gt;" style="rounded=0;whiteSpace=wrap;html=1;" vertex="1" parent="1">
          <mxGeometry x="130" y="170" width="120" height="60" as="geometry" />
        </mxCell>
        <mxCell id="g1vbs8MuK60aYzZgxMlk-2" value="OGF" style="rounded=0;whiteSpace=wrap;html=1;" vertex="1" parent="1">
          <mxGeometry x="-80" y="170" width="120" height="60" as="geometry" />
        </mxCell>
        <mxCell id="g1vbs8MuK60aYzZgxMlk-3" value="HK POP&amp;nbsp;香港 pop" style="rounded=0;whiteSpace=wrap;html=1;" vertex="1" parent="1">
          <mxGeometry x="380" y="170" width="120" height="60" as="geometry" />
        </mxCell>
        <mxCell id="g1vbs8MuK60aYzZgxMlk-4" value="any HK public ISP&amp;nbsp; &amp;nbsp;任何香港运营商" style="rounded=0;whiteSpace=wrap;html=1;" vertex="1" parent="1">
          <mxGeometry x="640" y="170" width="120" height="60" as="geometry" />
        </mxCell>
        <mxCell id="g1vbs8MuK60aYzZgxMlk-5" value="" style="endArrow=classic;html=1;rounded=0;exitX=1;exitY=0.5;exitDx=0;exitDy=0;" edge="1" parent="1" source="g1vbs8MuK60aYzZgxMlk-1">
          <mxGeometry width="50" height="50" relative="1" as="geometry">
            <mxPoint x="400" y="320" as="sourcePoint" />
            <mxPoint x="370" y="200" as="targetPoint" />
          </mxGeometry>
        </mxCell>
        <mxCell id="g1vbs8MuK60aYzZgxMlk-6" value="" style="endArrow=classic;html=1;rounded=0;entryX=0;entryY=0.5;entryDx=0;entryDy=0;exitX=1;exitY=0.5;exitDx=0;exitDy=0;" edge="1" parent="1" source="g1vbs8MuK60aYzZgxMlk-3" target="g1vbs8MuK60aYzZgxMlk-4">
          <mxGeometry width="50" height="50" relative="1" as="geometry">
            <mxPoint x="400" y="320" as="sourcePoint" />
            <mxPoint x="450" y="270" as="targetPoint" />
          </mxGeometry>
        </mxCell>
        <mxCell id="g1vbs8MuK60aYzZgxMlk-7" value="" style="endArrow=classic;html=1;rounded=0;entryX=0;entryY=0.5;entryDx=0;entryDy=0;exitX=1;exitY=0.5;exitDx=0;exitDy=0;" edge="1" parent="1" source="g1vbs8MuK60aYzZgxMlk-2" target="g1vbs8MuK60aYzZgxMlk-1">
          <mxGeometry width="50" height="50" relative="1" as="geometry">
            <mxPoint x="400" y="320" as="sourcePoint" />
            <mxPoint x="450" y="270" as="targetPoint" />
          </mxGeometry>
        </mxCell>
        <mxCell id="g1vbs8MuK60aYzZgxMlk-8" value="&lt;font style=&quot;font-size: 24px;&quot;&gt;Solution 1&amp;nbsp;&lt;/font&gt;" style="text;html=1;align=center;verticalAlign=middle;resizable=0;points=[];autosize=1;strokeColor=none;fillColor=none;" vertex="1" parent="1">
          <mxGeometry x="-110" y="70" width="140" height="40" as="geometry" />
        </mxCell>
        <mxCell id="g1vbs8MuK60aYzZgxMlk-9" value="MPLS L2&amp;nbsp;" style="text;html=1;align=center;verticalAlign=middle;whiteSpace=wrap;rounded=0;" vertex="1" parent="1">
          <mxGeometry x="280" y="170" width="60" height="30" as="geometry" />
        </mxCell>
        <mxCell id="g1vbs8MuK60aYzZgxMlk-10" value="HK Public ip /28&lt;div&gt;香港公网 IP /28&lt;/div&gt;" style="text;html=1;align=center;verticalAlign=middle;whiteSpace=wrap;rounded=0;" vertex="1" parent="1">
          <mxGeometry x="-95" y="240" width="165" height="50" as="geometry" />
        </mxCell>
        <mxCell id="g1vbs8MuK60aYzZgxMlk-11" value="&#xa;&lt;h3 style=&quot;color: rgb(34, 34, 34); font-family: Arial, Helvetica, sans-serif; font-style: normal; font-variant-ligatures: normal; font-variant-caps: normal; letter-spacing: normal; orphans: 2; text-align: start; text-indent: 0px; text-transform: none; widows: 2; word-spacing: 0px; -webkit-text-stroke-width: 0px; white-space: normal; background-color: rgb(255, 255, 255); text-decoration-thickness: initial; text-decoration-style: initial; text-decoration-color: initial;&quot;&gt;&lt;strong&gt;MPLS L2VPN Solution&lt;/strong&gt;&lt;/h3&gt;&lt;ul style=&quot;color: rgb(34, 34, 34); font-family: Arial, Helvetica, sans-serif; font-size: small; font-style: normal; font-variant-ligatures: normal; font-variant-caps: normal; font-weight: 400; letter-spacing: normal; orphans: 2; text-align: start; text-indent: 0px; text-transform: none; widows: 2; word-spacing: 0px; -webkit-text-stroke-width: 0px; white-space: normal; background-color: rgb(255, 255, 255); text-decoration-thickness: initial; text-decoration-style: initial; text-decoration-color: initial;&quot;&gt;&lt;li style=&quot;margin-left: 15px;&quot;&gt;&lt;strong&gt;Route:&lt;/strong&gt;&lt;span&gt;&amp;nbsp;&lt;/span&gt;Sri Lanka to Hong Kong (MPLS L2)&lt;/li&gt;&lt;li style=&quot;margin-left: 15px;&quot;&gt;Hong Kong to any ISP&lt;/li&gt;&lt;li style=&quot;margin-left: 15px;&quot;&gt;&lt;strong&gt;Bandwidth:&lt;/strong&gt;&lt;span&gt;&amp;nbsp;&lt;/span&gt;200 Mbps&lt;/li&gt;&lt;li style=&quot;margin-left: 15px;&quot;&gt;&lt;strong&gt;Requirement:&lt;/strong&gt;&lt;span&gt;&amp;nbsp;&lt;/span&gt;Must include HK public&amp;nbsp; ip /28&lt;/li&gt;&lt;/ul&gt;&#xa;&#xa;" style="text;html=1;align=center;verticalAlign=middle;whiteSpace=wrap;rounded=0;" vertex="1" parent="1">
          <mxGeometry x="-80" y="300" width="350" height="130" as="geometry" />
        </mxCell>
        <mxCell id="g1vbs8MuK60aYzZgxMlk-12" value="&lt;font style=&quot;font-size: 24px;&quot;&gt;Solution 2&lt;/font&gt;" style="text;html=1;align=center;verticalAlign=middle;resizable=0;points=[];autosize=1;strokeColor=none;fillColor=none;" vertex="1" parent="1">
          <mxGeometry x="-95" y="440" width="130" height="40" as="geometry" />
        </mxCell>
        <mxCell id="g1vbs8MuK60aYzZgxMlk-13" value="Srilanka ISP&lt;div&gt;&amp;nbsp;斯里兰卡运营商&lt;/div&gt;" style="rounded=0;whiteSpace=wrap;html=1;" vertex="1" parent="1">
          <mxGeometry x="165" y="490" width="120" height="60" as="geometry" />
        </mxCell>
        <mxCell id="g1vbs8MuK60aYzZgxMlk-14" value="any HK ISP&amp;nbsp; &amp;nbsp; &amp;nbsp; &amp;nbsp; &amp;nbsp; &amp;nbsp; &amp;nbsp; &amp;nbsp;任何香港运营商" style="rounded=0;whiteSpace=wrap;html=1;" vertex="1" parent="1">
          <mxGeometry x="410" y="490" width="120" height="60" as="geometry" />
        </mxCell>
        <mxCell id="g1vbs8MuK60aYzZgxMlk-16" value="" style="endArrow=classic;html=1;rounded=0;exitX=1;exitY=0.5;exitDx=0;exitDy=0;" edge="1" parent="1" source="g1vbs8MuK60aYzZgxMlk-13">
          <mxGeometry width="50" height="50" relative="1" as="geometry">
            <mxPoint x="435" y="640" as="sourcePoint" />
            <mxPoint x="405" y="520" as="targetPoint" />
          </mxGeometry>
        </mxCell>
        <mxCell id="g1vbs8MuK60aYzZgxMlk-18" value="" style="endArrow=classic;html=1;rounded=0;entryX=0;entryY=0.5;entryDx=0;entryDy=0;exitX=1;exitY=0.5;exitDx=0;exitDy=0;" edge="1" parent="1" target="g1vbs8MuK60aYzZgxMlk-13">
          <mxGeometry width="50" height="50" relative="1" as="geometry">
            <mxPoint x="75" y="520" as="sourcePoint" />
            <mxPoint x="485" y="590" as="targetPoint" />
          </mxGeometry>
        </mxCell>
        <mxCell id="g1vbs8MuK60aYzZgxMlk-20" value="OGF" style="rounded=0;whiteSpace=wrap;html=1;" vertex="1" parent="1">
          <mxGeometry x="-50" y="490" width="120" height="60" as="geometry" />
        </mxCell>
        <mxCell id="g1vbs8MuK60aYzZgxMlk-21" value="HK Public ip /28&lt;div&gt;香港公网 IP /28&lt;/div&gt;" style="text;html=1;align=center;verticalAlign=middle;whiteSpace=wrap;rounded=0;" vertex="1" parent="1">
          <mxGeometry x="-50" y="560" width="110" height="30" as="geometry" />
        </mxCell>
        <mxCell id="g1vbs8MuK60aYzZgxMlk-22" value="SD-WAN TUNNEL" style="text;html=1;align=center;verticalAlign=middle;whiteSpace=wrap;rounded=0;" vertex="1" parent="1">
          <mxGeometry x="190" y="550" width="60" height="30" as="geometry" />
        </mxCell>
        <mxCell id="g1vbs8MuK60aYzZgxMlk-23" value="&lt;span style=&quot;color: rgb(0, 0, 0); font-family: Helvetica; font-size: 12px; font-style: normal; font-variant-ligatures: normal; font-variant-caps: normal; font-weight: 400; letter-spacing: normal; orphans: 2; text-align: center; text-indent: 0px; text-transform: none; widows: 2; word-spacing: 0px; -webkit-text-stroke-width: 0px; white-space: normal; background-color: rgb(251, 251, 251); text-decoration-thickness: initial; text-decoration-style: initial; text-decoration-color: initial; float: none; display: inline !important;&quot;&gt;SD-WAN Gateway&lt;/span&gt;" style="text;whiteSpace=wrap;html=1;" vertex="1" parent="1">
          <mxGeometry x="405" y="550" width="130" height="35" as="geometry" />
        </mxCell>
        <mxCell id="g1vbs8MuK60aYzZgxMlk-24" value="&lt;h3 style=&quot;color: rgb(34, 34, 34); font-family: Arial, Helvetica, sans-serif; text-align: start; background-color: rgb(255, 255, 255);&quot;&gt;&lt;strong&gt;&amp;nbsp;SD-WAN Solution&lt;/strong&gt;&lt;/h3&gt;&lt;ul style=&quot;color: rgb(34, 34, 34); font-family: Arial, Helvetica, sans-serif; font-size: small; text-align: start; background-color: rgb(255, 255, 255);&quot;&gt;&lt;li style=&quot;margin-left: 15px;&quot;&gt;&lt;strong&gt;Optimized connectivity between Sri Lanka and Hong Kong&lt;/strong&gt;&lt;/li&gt;&lt;li style=&quot;margin-left: 15px;&quot;&gt;&lt;strong&gt;Bandwidth:&lt;/strong&gt;&amp;nbsp;200 Mbps&lt;/li&gt;&lt;li style=&quot;margin-left: 15px;&quot;&gt;&lt;strong&gt;Requirement:&lt;/strong&gt;&amp;nbsp;Must include HK public ip&amp;nbsp; /28&lt;/li&gt;&lt;/ul&gt;" style="text;html=1;align=center;verticalAlign=middle;whiteSpace=wrap;rounded=0;" vertex="1" parent="1">
          <mxGeometry x="-60" y="590" width="320" height="170" as="geometry" />
        </mxCell>
        <mxCell id="g1vbs8MuK60aYzZgxMlk-26" value="SD-WAN 隧道" style="text;whiteSpace=wrap;html=1;" vertex="1" parent="1">
          <mxGeometry x="295" y="540" width="110" height="40" as="geometry" />
        </mxCell>
        <mxCell id="g1vbs8MuK60aYzZgxMlk-27" value="&lt;span style=&quot;color: rgb(34, 34, 34); font-family: Arial, Helvetica, sans-serif; font-size: small; font-style: normal; font-variant-ligatures: normal; font-variant-caps: normal; font-weight: 400; letter-spacing: normal; orphans: 2; text-align: start; text-indent: 0px; text-transform: none; widows: 2; word-spacing: 0px; -webkit-text-stroke-width: 0px; white-space: normal; background-color: rgb(255, 255, 255); text-decoration-thickness: initial; text-decoration-style: initial; text-decoration-color: initial; display: inline !important; float: none;&quot;&gt;provide a detailed proposal, including pricing, SLA commitments, latency details, and bandwidth guarantee recommendations based on our requirements&lt;/span&gt;" style="text;whiteSpace=wrap;html=1;" vertex="1" parent="1">
          <mxGeometry x="-50" y="750" width="850" height="50" as="geometry" />
        </mxCell>
        <mxCell id="g1vbs8MuK60aYzZgxMlk-30" value="Source" style="text;html=1;align=center;verticalAlign=middle;whiteSpace=wrap;rounded=0;" vertex="1" parent="1">
          <mxGeometry x="-60" y="140" width="60" height="30" as="geometry" />
        </mxCell>
        <mxCell id="g1vbs8MuK60aYzZgxMlk-31" value="Dest" style="text;html=1;align=center;verticalAlign=middle;whiteSpace=wrap;rounded=0;" vertex="1" parent="1">
          <mxGeometry x="660" y="140" width="60" height="30" as="geometry" />
        </mxCell>
      </root>
    </mxGraphModel>
  </diagram>
</mxfile>
